<?xml version="1.0" encoding="UTF-8"?>
<svg width="20px" height="20px" viewBox="0 0 20 20" version="1.1" xmlns="http://www.w3.org/2000/svg" xmlns:xlink="http://www.w3.org/1999/xlink">
    <title>icon3</title>
    <g id="icon3" stroke="none" stroke-width="1" fill="none" fill-rule="evenodd">
        <path d="M10,2 C14.1176219,2 17.5086664,5.12036384 17.9511088,9.13226944 L16.8768374,9.1324949 C16.4403504,5.71287305 13.5278802,3.06992967 10,3.06992967 C6.17082573,3.06992967 3.06666667,6.18358457 3.06666667,10.0244725 C3.06666667,13.5632217 5.70166439,16.4846515 9.11096515,16.9223752 L9.11091123,17.999948 C5.1110515,17.5563315 2,14.1548259 2,10.0244725 C2,5.59267873 5.581722,2 10,2 Z M17.4650352,16.2657289 C17.7604881,16.2657289 18,16.5052409 18,16.8006938 C18,17.0961467 17.7604881,17.3356586 17.4650352,17.3356586 L11.4238537,17.3356586 C11.1284008,17.3356586 10.8888889,17.0961467 10.8888889,16.8006938 C10.8888889,16.5052409 11.1284008,16.2657289 11.4238537,16.2657289 L17.4650352,16.2657289 Z M17.4650352,13.5909048 C17.7604881,13.5909048 18,13.8304167 18,14.1258696 C18,14.4213225 17.7604881,14.6608344 17.4650352,14.6608344 L11.4238537,14.6608344 C11.1284008,14.6608344 10.8888889,14.4213225 10.8888889,14.1258696 C10.8888889,13.8304167 11.1284008,13.5909048 11.4238537,13.5909048 L17.4650352,13.5909048 Z M10,5.0314674 C10.2650967,5.0314674 10.4850193,5.22547205 10.5263529,5.47965816 L10.5333333,5.56643224 L10.5333333,10.2919549 L6.76444444,13.1272686 C6.52880295,13.3045403 6.1945089,13.2566379 6.01777778,13.0202756 C5.85871977,12.8075495 5.88149657,12.5146704 6.05942515,12.3289907 L6.12444444,12.2713248 L9.46666667,9.75699011 L9.46666667,5.56643224 C9.46666667,5.30052461 9.66007965,5.07992919 9.91349056,5.03846919 L10,5.0314674 Z M17.4650352,10.9160806 C17.7604881,10.9160806 18,11.1555925 18,11.4510454 C18,11.7464983 17.7604881,11.9860103 17.4650352,11.9860103 L11.4238537,11.9860103 C11.1284008,11.9860103 10.8888889,11.7464983 10.8888889,11.4510454 C10.8888889,11.1555925 11.1284008,10.9160806 11.4238537,10.9160806 L17.4650352,10.9160806 Z" id="形状结合" fill="#000000" fill-rule="nonzero"></path>
    </g>
</svg>