<?xml version="1.0" encoding="UTF-8"?>
<svg width="20px" height="20px" viewBox="0 0 20 20" version="1.1" xmlns="http://www.w3.org/2000/svg" xmlns:xlink="http://www.w3.org/1999/xlink">
    <title>icon1</title>
    <g id="icon1" stroke="none" stroke-width="1" fill="none" fill-rule="evenodd">
        <path d="M14,2 C14.5522847,2 15,2.44771525 15,3 L15,7 C15,7.55228475 14.5522847,8 14,8 L10.5,8 L10.5,9.5 L13,9.5 C14.3254834,9.5 15.4100387,10.5315359 15.4946823,11.8356243 L15.5,12 L17,12 C17.5522847,12 18,12.4477153 18,13 L18,17 C18,17.5522847 17.5522847,18 17,18 L13,18 C12.4477153,18 12,17.5522847 12,17 L12,13 C12,12.4477153 12.4477153,12 13,12 L14.5,12 C14.5,11.2203039 13.9051119,10.5795513 13.14446,10.5068666 L13,10.5 L7,10.5 C6.22030388,10.5 5.57955132,11.0948881 5.50686658,11.85554 L5.5,12 L7,12 C7.55228475,12 8,12.4477153 8,13 L8,17 C8,17.5522847 7.55228475,18 7,18 L3,18 C2.44771525,18 2,17.5522847 2,17 L2,13 C2,12.4477153 2.44771525,12 3,12 L4.5,12 C4.5,10.6745166 5.53153594,9.58996133 6.83562431,9.50531768 L7,9.5 L9.5,9.5 L9.5,8 L6,8 C5.44771525,8 5,7.55228475 5,7 L5,3 C5,2.44771525 5.44771525,2 6,2 L14,2 Z M7,13 L3,13 L3,17 L7,17 L7,13 Z M17,13 L13,13 L13,17 L17,17 L17,13 Z M14,3 L6,3 L6,7 L14,7 L14,3 Z" id="形状结合" fill="#000000"></path>
    </g>
</svg>