<?xml version="1.0" encoding="UTF-8"?>
<svg width="20px" height="20px" viewBox="0 0 20 20" version="1.1" xmlns="http://www.w3.org/2000/svg" xmlns:xlink="http://www.w3.org/1999/xlink">
    <title>icon2</title>
    <g id="icon2" stroke="none" stroke-width="1" fill="none" fill-rule="evenodd">
        <path d="M4.11192057,5.40937735 L4.10526316,5.5359116 L4.10526316,15.7016575 C4.10526316,16.3424298 4.61267071,16.8694612 5.26289565,16.9328371 L5.39473684,16.9392265 L14.6052632,16.9392265 C15.27291,16.9392265 15.8220455,16.4522434 15.8880794,15.8281917 L15.8947368,15.7016575 L15.8947368,5.5359116 C15.8947368,4.89513924 15.3873293,4.36810787 14.7371044,4.30473197 L14.6052632,4.29834254 L14.6052632,4.6519337 C14.6052632,5.14014122 14.1928938,5.5359116 13.6842105,5.5359116 L6.31578947,5.5359116 C5.80710615,5.5359116 5.39473684,5.14014122 5.39473684,4.6519337 L5.39473684,4.29834254 C4.72708998,4.29834254 4.1779545,4.78532563 4.11192057,5.40937735 Z M6.86842105,13.0497238 C7.17363105,13.0497238 7.42105263,13.287186 7.42105263,13.5801105 C7.42105263,13.873035 7.17363105,14.1104972 6.86842105,14.1104972 C6.56321106,14.1104972 6.31578947,13.873035 6.31578947,13.5801105 C6.31578947,13.287186 6.56321106,13.0497238 6.86842105,13.0497238 Z M13.1538238,13.0497238 C13.4467483,13.0497238 13.6842105,13.287186 13.6842105,13.5801105 C13.6842105,13.873035 13.4467483,14.1104972 13.1538238,14.1104972 L8.68828148,14.1104972 C8.39535697,14.1104972 8.15789474,13.873035 8.15789474,13.5801105 C8.15789474,13.287186 8.39535697,13.0497238 8.68828148,13.0497238 L13.1538238,13.0497238 Z M6.86842105,10.3977901 C7.17363105,10.3977901 7.42105263,10.6352523 7.42105263,10.9281768 C7.42105263,11.2211013 7.17363105,11.4585635 6.86842105,11.4585635 C6.56321106,11.4585635 6.31578947,11.2211013 6.31578947,10.9281768 C6.31578947,10.6352523 6.56321106,10.3977901 6.86842105,10.3977901 Z M13.1538238,10.3977901 C13.4467483,10.3977901 13.6842105,10.6352523 13.6842105,10.9281768 C13.6842105,11.2211013 13.4467483,11.4585635 13.1538238,11.4585635 L8.68828148,11.4585635 C8.39535697,11.4585635 8.15789474,11.2211013 8.15789474,10.9281768 C8.15789474,10.6352523 8.39535697,10.3977901 8.68828148,10.3977901 L13.1538238,10.3977901 Z M6.86842105,7.74585635 C7.17363105,7.74585635 7.42105263,7.98331859 7.42105263,8.27624309 C7.42105263,8.5691676 7.17363105,8.80662983 6.86842105,8.80662983 C6.56321106,8.80662983 6.31578947,8.5691676 6.31578947,8.27624309 C6.31578947,7.98331859 6.56321106,7.74585635 6.86842105,7.74585635 Z M13.1538238,7.74585635 C13.4467483,7.74585635 13.6842105,7.98331859 13.6842105,8.27624309 C13.6842105,8.5691676 13.4467483,8.80662983 13.1538238,8.80662983 L8.68828148,8.80662983 C8.39535697,8.80662983 8.15789474,8.5691676 8.15789474,8.27624309 C8.15789474,7.98331859 8.39535697,7.74585635 8.68828148,7.74585635 L13.1538238,7.74585635 Z M13.5,3.06077348 L6.5,3.06077348 L6.5,4.47513812 L13.5,4.47513812 L13.5,3.06077348 Z M5.39473684,2.8839779 C5.39473684,2.39577039 5.80710615,2 6.31578947,2 L13.6842105,2 C14.1928938,2 14.6052632,2.39577039 14.6052632,2.8839779 L14.6052632,3.23756906 C15.8727324,3.23756906 16.9102186,4.18260828 16.9944753,5.37855296 L17,5.5359116 L17,15.7016575 C17,16.9181078 16.0153251,17.9138325 14.7692215,17.9946977 L14.6052632,18 L5.39473684,18 C4.12726756,18 3.08978143,17.0549608 3.00552472,15.8590161 L3,15.7016575 L3,5.5359116 C3,4.31946121 3.98467491,3.32373656 5.23077846,3.2428714 L5.39473684,3.23756906 L5.39473684,2.8839779 Z" id="形状结合" fill="#000000" fill-rule="nonzero"></path>
    </g>
</svg>