<?xml version="1.0" encoding="UTF-8"?>
<svg width="20px" height="20px" viewBox="0 0 20 20" version="1.1" xmlns="http://www.w3.org/2000/svg" xmlns:xlink="http://www.w3.org/1999/xlink">
    <title>画板</title>
    <g id="画板" stroke="none" stroke-width="1" fill="none" fill-rule="evenodd">
        <path d="M12.1232319,10.28481 C15.4343086,11.1939634 17.8868682,14.1775394 17.9961932,17.7508207 L18,18 L2,18 C2,14.3164777 4.48950157,11.2144096 7.87776397,10.2845366 L10,14 L12.1232319,10.28481 Z M7.415,11.491 C5.10612024,12.4111806 3.44580881,14.4951509 3.07713095,16.9602636 L3.072,17 L16.928,17 C16.5848834,14.6046754 15.0216027,12.5673707 12.839869,11.5992993 L12.584,11.492 L9.99976439,16.0157863 L7.415,11.491 Z M10,2 C12.209139,2 14,3.790861 14,6 C14,8.209139 12.209139,10 10,10 C7.790861,10 6,8.209139 6,6 C6,3.790861 7.790861,2 10,2 Z M10,3 C8.34314575,3 7,4.34314575 7,6 C7,7.65685425 8.34314575,9 10,9 C11.6568542,9 13,7.65685425 13,6 C13,4.34314575 11.6568542,3 10,3 Z" id="形状结合" fill="#000000" fill-rule="nonzero"></path>
    </g>
</svg>