<?xml version="1.0" encoding="UTF-8"?>
<svg width="20px" height="20px" viewBox="0 0 20 20" version="1.1" xmlns="http://www.w3.org/2000/svg" xmlns:xlink="http://www.w3.org/1999/xlink">
    <title>icon6</title>
    <g id="icon6" stroke="none" stroke-width="1" fill="none" fill-rule="evenodd">
        <g id="配置" transform="translate(2.149980, 2.150000)" fill="#000000" fill-rule="nonzero">
            <path d="M15.2181998,14.5755348 C15.5666036,14.5755348 15.8500203,14.798392 15.8500203,15.0755348 C15.8500203,15.3512491 15.5666036,15.5755348 15.2181998,15.5755348 L15.2181998,15.5755348 L9.14369719,15.5755348 C8.79529333,15.5755348 8.51187671,15.3512491 8.51187671,15.0755348 C8.51187671,14.7998205 8.79529333,14.5755348 9.14369719,14.5755348 L9.14369719,14.5755348 Z M7.21393693,0 C7.5286018,0 7.83991391,0.0183901859 8.14163448,0.0553289525 C8.64900279,0.116404848 9.09440598,0.448734836 9.30048699,0.920512917 L9.95217579,2.41166258 C10.0373665,2.60954576 10.2405761,2.72828076 10.4545302,2.70459685 L12.0610454,2.52800496 C12.5665514,2.47208749 13.072966,2.69405433 13.3813731,3.10602859 C13.7538737,3.60635783 14.0659878,4.15106174 14.311131,4.72796213 C14.5127903,5.20418495 14.4500241,5.76015724 14.1473892,6.17592632 L13.1922973,7.49245996 L13.1457663,7.56972053 C13.0682145,7.73055165 13.0837225,7.9249004 13.1922784,8.07460547 L13.8330203,8.958 L12.6370203,8.958 L12.415338,8.65060881 C12.038121,8.13121378 12.038121,7.43405704 12.4151423,6.91493211 L13.3717499,5.60243791 C13.4731664,5.46343497 13.4938658,5.27698375 13.426944,5.11603391 C13.2147972,4.61367782 12.9400468,4.13508639 12.6125304,3.69652349 C12.508501,3.55750372 12.3376479,3.48220571 12.1658967,3.50057778 L10.5588322,3.67722945 C9.92547243,3.74655495 9.32705503,3.39842961 9.06992405,2.81038668 L8.41825785,1.31928871 C8.34821045,1.15967743 8.19832597,1.04756691 8.02642758,1.02655226 C7.75317074,0.99446044 7.48029487,0.978106509 7.21213173,0.978106509 C6.94214422,0.978106509 6.66918152,0.994465644 6.39842379,1.02648157 C6.22593749,1.04756691 6.07605301,1.15967743 6.00609779,1.31907821 L5.35432791,2.81041298 C5.09720843,3.39842961 4.49879102,3.74655495 3.86536262,3.67722193 L2.258802,3.50062499 C2.08661554,3.48220571 1.91576245,3.55750372 1.81182021,3.69640692 C1.48242221,4.13936524 1.20837275,4.61626708 0.997640771,5.1152672 C0.930533104,5.27665795 0.951050582,5.46075633 1.0517772,5.60141862 L2.00726963,6.91850955 C2.38433723,7.43769837 2.38433723,8.13485511 2.007316,8.65398005 L1.05231811,9.9703844 C0.949057683,10.108349 0.928177868,10.2964247 0.99811293,10.4583919 C1.20946622,10.9588757 1.4842167,11.4374671 1.81173307,11.87603 C1.914423,12.015857 2.08538669,12.0904792 2.25836672,12.0719757 L3.86543122,11.895324 C3.92377292,11.8899993 3.97722251,11.8871188 4.02595132,11.8871188 C4.60169753,11.8871188 5.11973332,12.2264952 5.35437476,12.7622476 L6.0060056,14.2532648 C6.07605301,14.412876 6.22593749,14.5249866 6.39783588,14.5460012 L6.66977298,14.5728341 C6.85123506,14.5871884 7.03290001,14.594447 7.21393693,14.594447 L7.34502026,14.593 L7.34502026,15.565 L7.21393693,15.5670915 C6.89927206,15.5670915 6.58795995,15.5487013 6.28623938,15.5117625 C5.77887107,15.4506866 5.33346788,15.1183567 5.12738687,14.6465786 L4.47569807,13.1554289 C4.39050733,12.9575457 4.18729776,12.8388107 3.97334366,12.8624946 L2.36682844,13.0390865 C2.30912201,13.0445254 2.25975076,13.0472918 2.21172395,13.0472918 C1.75683012,13.0472918 1.32201208,12.8293657 1.04653253,12.4611053 C0.674000183,11.9607337 0.361886054,11.4160297 0.116742901,10.8391294 C-0.0849164067,10.3629065 -0.0221502794,9.80693425 0.280484678,9.39116517 L1.23557657,8.07463153 C1.36224404,7.90256286 1.36224404,7.66714193 1.23559547,7.49248602 L0.280625052,6.17611949 C-0.0221502794,5.76015724 -0.0849164067,5.20418495 0.116816148,4.72778946 C0.358275641,4.15541058 0.67107904,3.61028139 1.04673676,3.10571251 C1.35430901,2.69320342 1.86012697,2.47195525 2.36672613,2.52799368 L3.97345766,2.70460942 C4.18729776,2.72828076 4.39050733,2.60954576 4.47602539,2.41090802 L5.12737577,0.920538322 C5.33379084,0.447995493 5.77784806,0.116331342 6.28588175,0.0553723 C6.58795995,0.0183901859 6.89927206,0 7.21393693,0 Z M15.2181998,12.3452208 C15.5666036,12.3452208 15.8500203,12.5695065 15.8500203,12.8452208 C15.8500203,13.120935 15.5666036,13.3452208 15.2181998,13.3452208 L15.2181998,13.3452208 L9.14369719,13.3452208 C8.79529333,13.3452208 8.51187671,13.120935 8.51187671,12.8452208 C8.51187671,12.5695065 8.79529333,12.3452208 9.14369719,12.3452208 L9.14369719,12.3452208 Z M7.35002026,4.45 C9.24929794,4.45 10.7952397,5.96281099 10.8485962,7.84918366 L9.84602026,7.849 L9.84470258,7.78562431 C9.76005893,6.48153594 8.67550366,5.45 7.35002026,5.45 C5.96930839,5.45 4.85002026,6.56928813 4.85002026,7.95 C4.85002026,9.33071187 5.96930839,10.45 7.35002026,10.45 C7.52140669,10.45 7.6887651,10.432754 7.85045475,10.3999027 L7.85097017,11.4144196 C7.68736616,11.4378671 7.52011011,11.45 7.35002026,11.45 C5.41702364,11.45 3.85002026,9.88299662 3.85002026,7.95 C3.85002026,6.01700338 5.41702364,4.45 7.35002026,4.45 Z M15.2181998,10.1167274 C15.5666036,10.1167274 15.8500203,10.3410131 15.8500203,10.6167274 C15.8500203,10.8924416 15.5666036,11.1167274 15.2181998,11.1167274 L15.2181998,11.1167274 L9.14369719,11.1167274 C8.79529333,11.1167274 8.51187671,10.8924416 8.51187671,10.6167274 C8.51187671,10.3410131 8.79529333,10.1167274 9.14369719,10.1167274 L9.14369719,10.1167274 Z" id="形状结合"></path>
        </g>
    </g>
</svg>