<?xml version="1.0" encoding="UTF-8"?>
<svg width="20px" height="20px" viewBox="0 0 20 20" version="1.1"
    xmlns="http://www.w3.org/2000/svg"
    xmlns:xlink="http://www.w3.org/1999/xlink">
    <title>icon5</title>
    <g id="icon5" stroke="none" stroke-width="1" fill="none"
        fill-rule="evenodd">
        <g id="编组-4" transform="translate(3.000000, 2.000000)" fill="#000000"
            fill-rule="nonzero">
            <path
                d="M13,0 C13.5522847,0 14,0.44771525 14,1 L14,15 C14,15.5128358 13.6139598,15.9355072 13.1166211,15.9932723 L13,16 L13,16 L3,16 C1.34314575,16 0,14.6568542 0,13 L0,3 C0,1.34314575 1.34314575,0 3,0 L13,0 Z M13,11 L3,11 C1.8954305,11 1,11.8954305 1,13 C1,14.0543618 1.81587779,14.9181651 2.85073766,14.9945143 L3,15 L13,15 L13,11 Z M13,1 L11,1 L11,6 L8.5,5 L6,6 L6,1 L3,1 C1.9456382,1 1.08183488,1.81587779 1.00548574,2.85073766 L1,3 L1.00009834,10.7638055 C1.53084306,10.2888179 2.23169302,10 3,10 L13,10 L13,1 Z M10,1 L7,1 L7,4.522 L8.5,3.92296704 L10,4.523 L10,1 Z"
                id="形状结合"></path>
        </g>
    </g>
</svg>